<svg id="Layer_1" data-name="Layer 1" xmlns="http://www.w3.org/2000/svg" viewBox="0 0 209.9 53"><defs><style>.cls-1,.cls-2{fill:#f56026;}.cls-2{fill-rule:evenodd;}</style></defs><polygon class="cls-1" points="23.26 0 16.97 29.62 19.07 29.62 29.31 15.79 42.58 15.79 28.43 33.48 37.13 52.65 23.02 52.65 17.36 37.69 15.25 37.69 12.07 52.65 0 52.65 11.19 0 23.26 0 23.26 0"/><path class="cls-2" d="M52.22,29.55H64.08a8.06,8.06,0,0,0,.16-3.94A2.31,2.31,0,0,0,62.55,24a12.65,12.65,0,0,0-3.33-.29,7.22,7.22,0,0,0-4.67,1.09c-1,.8-1.79,2.37-2.33,4.73ZM62,40.29H73.87A17.61,17.61,0,0,1,71.15,47a12.26,12.26,0,0,1-4.5,3.87,19.93,19.93,0,0,1-6,1.75,53.34,53.34,0,0,1-7.4.43Q46,53,42.46,51.18a7.68,7.68,0,0,1-4.18-6q-.64-4.16.89-11A38.52,38.52,0,0,1,42.93,23a13.29,13.29,0,0,1,6.66-5.94q4.3-1.79,11.63-1.75,6.87-.06,10.47,1.56a7.39,7.39,0,0,1,4.36,5.76q.75,4.13-.88,11.57l-.43,2H50.81c-.74,3.18-.84,5.37-.29,6.6s2,1.81,4.48,1.76a10.54,10.54,0,0,0,4.59-.7c1.2-.52,2-1.72,2.42-3.59Z"/><polygon class="cls-1" points="98.99 0 87.8 52.65 75.73 52.65 86.92 0 98.99 0 98.99 0"/><polygon class="cls-1" points="116.14 0 109.84 29.62 111.95 29.62 122.19 15.79 135.45 15.79 121.31 33.48 130.01 52.65 115.9 52.65 110.23 37.69 108.13 37.69 104.95 52.65 92.88 52.65 104.07 0 116.14 0 116.14 0"/><path class="cls-1" d="M152.22,24.55a10.17,10.17,0,0,0-4.44.72,5.29,5.29,0,0,0-2.45,2.85,33.14,33.14,0,0,0-1.68,6.05,30.23,30.23,0,0,0-.89,6A3,3,0,0,0,144,43a8.21,8.21,0,0,0,4.13.7,9.32,9.32,0,0,0,4.25-.7,5.07,5.07,0,0,0,2.33-2.82,36.64,36.64,0,0,0,1.63-6c.59-2.64,1.5-9.41,1.5-9.41s-4.71-.22-5.63-.21ZM154,15.29c2.11,0,4,.05,5.66.2l-1.79,9.24h11.87a45.87,45.87,0,0,1-1.3,9.44,40.05,40.05,0,0,1-3.85,11.62,12.3,12.3,0,0,1-6.7,5.68Q153.52,53.06,146,53t-11.13-1.6a7.09,7.09,0,0,1-4.27-5.78q-.62-4.12,1-11.43a40.72,40.72,0,0,1,3.82-11.6,12.33,12.33,0,0,1,6.66-5.74q4.33-1.6,11.93-1.54Z"/><path class="cls-1" d="M192.4,24.56a10,10,0,0,0-4.44.72,5.22,5.22,0,0,0-2.45,2.85,32.9,32.9,0,0,0-1.68,6.05,30,30,0,0,0-.89,6A3,3,0,0,0,184.19,43a8.31,8.31,0,0,0,4.13.69,9.48,9.48,0,0,0,4.25-.69,5.08,5.08,0,0,0,2.32-2.82,36.05,36.05,0,0,0,1.64-6c.59-2.64,1.5-9.42,1.5-9.42s-4.71-.21-5.63-.2Zm1.76-9.26a51.53,51.53,0,0,1,5.65.2L198,24.73H209.9a46,46,0,0,1-1.3,9.45,40.08,40.08,0,0,1-3.85,11.61,12.35,12.35,0,0,1-6.7,5.69Q193.7,53.07,186.14,53T175,51.39a7.1,7.1,0,0,1-4.27-5.78q-.62-4.12,1-11.43a40.8,40.8,0,0,1,3.82-11.61,12.31,12.31,0,0,1,6.66-5.73q4.34-1.62,11.93-1.54Z"/></svg>